<?xml version="1.0" standalone="no"?>
<!DOCTYPE svg PUBLIC "-//W3C//DTD SVG 20010904//EN"
 "http://www.w3.org/TR/2001/REC-SVG-20010904/DTD/svg10.dtd">
<svg version="1.0" xmlns="http://www.w3.org/2000/svg"
 width="539.000000pt" height="459.000000pt" viewBox="0 0 539.000000 459.000000"
 preserveAspectRatio="xMidYMid meet">

<g transform="translate(0.000000,459.000000) scale(0.100000,-0.100000)"
fill="#000000" stroke="none">
<path d="M2415 3721 c-74 -22 -110 -41 -195 -98 -128 -88 -198 -183 -201 -274
-3 -53 36 -147 78 -192 17 -18 43 -50 59 -72 16 -22 57 -76 92 -120 62 -77 64
-81 58 -125 -25 -190 -27 -239 -7 -278 10 -20 32 -45 49 -54 33 -19 42 -49 42
-132 0 -41 -9 -69 -40 -131 -22 -44 -40 -93 -40 -111 0 -30 -8 -38 -94 -98
-51 -36 -118 -87 -147 -114 -30 -27 -69 -62 -87 -78 -19 -16 -59 -60 -90 -98
-31 -38 -68 -80 -81 -93 -27 -28 -23 -40 8 -24 16 9 29 7 62 -9 48 -25 156
-50 217 -50 45 0 82 -14 82 -30 0 -19 -40 -50 -65 -50 -32 0 -33 -16 -1 -24
12 -3 63 -48 112 -99 143 -150 156 -160 229 -168 72 -9 103 -24 111 -54 3 -11
-5 -72 -18 -135 -26 -130 -36 -140 -86 -91 -19 20 -45 33 -71 37 -23 4 -41 8
-41 9 0 2 7 38 15 80 8 43 12 82 9 87 -3 5 -40 26 -82 48 -138 71 -256 150
-309 206 -65 68 -69 87 -14 78 21 -3 47 -2 56 4 14 7 5 11 -41 17 -33 3 -79
15 -103 26 -24 10 -46 19 -48 19 -3 0 11 -18 30 -39 19 -22 41 -50 48 -63 32
-61 91 -116 161 -151 40 -20 118 -63 173 -95 l100 -59 -1 -57 c-2 -65 -15 -85
-77 -112 -60 -26 -97 -53 -97 -70 0 -9 13 -29 29 -45 25 -25 37 -29 83 -29 68
0 230 26 271 44 56 23 71 50 75 130 4 69 -9 120 -47 196 -8 15 -67 33 -146 45
-34 6 -54 21 -125 93 -47 48 -100 99 -118 114 l-33 27 21 40 c11 22 20 49 20
60 0 54 225 193 403 248 47 15 48 14 105 -17 31 -18 80 -47 107 -65 28 -17 75
-47 105 -65 80 -47 100 -68 100 -106 0 -23 8 -39 30 -57 16 -14 35 -27 41 -29
20 -7 -8 -46 -54 -75 -23 -14 -69 -50 -101 -80 -38 -34 -75 -57 -100 -64 -87
-22 -91 -24 -115 -72 -39 -79 -39 -121 2 -198 73 -140 114 -168 249 -171 68
-2 83 1 94 17 8 10 14 27 14 36 0 23 -21 69 -31 69 -20 0 -68 63 -74 99 -15
90 15 134 163 232 103 70 182 142 210 193 12 22 22 46 22 51 0 6 14 32 30 58
38 61 39 105 4 141 -16 15 -38 26 -54 26 -21 0 -47 22 -121 98 -52 54 -140
133 -197 175 -56 43 -102 82 -102 88 0 5 6 20 14 32 13 19 13 27 -4 63 -21 44
-40 145 -40 210 0 32 6 46 31 70 43 40 79 116 85 177 3 29 7 68 9 87 2 19 4
47 5 62 0 31 38 79 92 118 43 32 195 198 251 275 53 73 57 113 19 195 -23 50
-53 88 -132 167 -88 88 -113 106 -176 133 -82 34 -142 38 -182 13 -62 -40 -99
-76 -127 -123 -16 -27 -34 -50 -41 -50 -6 0 -19 20 -28 44 -17 45 -38 67 -122
129 -64 46 -92 50 -169 28z m130 -30 c22 -10 55 -34 73 -55 41 -47 85 -133 72
-141 -6 -3 -10 1 -10 9 0 9 -4 16 -9 16 -5 0 -18 16 -30 35 -11 19 -25 35 -30
35 -13 0 -41 -87 -34 -105 3 -8 11 -15 19 -15 7 0 29 -25 49 -55 35 -55 36
-56 73 -49 20 4 49 13 63 20 19 9 29 10 37 2 18 -18 40 -1 66 54 14 29 45 75
69 101 38 43 45 47 67 38 48 -18 143 -122 187 -205 24 -44 43 -87 43 -95 0
-39 -73 -129 -177 -218 -71 -62 -87 -67 -71 -23 6 19 7 44 1 68 -7 32 -16 41
-68 67 -46 23 -68 42 -92 79 -39 60 -44 63 -119 75 -54 8 -64 6 -109 -17 -27
-13 -62 -39 -77 -57 -15 -17 -45 -38 -67 -45 -22 -7 -61 -32 -87 -57 -27 -24
-54 -41 -61 -39 -19 8 -103 124 -125 175 -30 67 -19 101 60 184 57 59 166 137
191 137 7 0 38 -76 72 -174 15 -42 36 -57 50 -35 12 20 11 23 -11 49 -11 12
-29 48 -41 79 -17 46 -19 62 -10 90 6 19 8 37 6 40 -12 11 -96 -25 -159 -67
-122 -83 -215 -208 -203 -270 8 -40 192 -306 227 -327 13 -8 36 -62 48 -113 8
-36 8 -44 -5 -49 -46 -18 -363 394 -363 472 0 9 -5 25 -11 36 -41 77 164 292
327 343 98 30 117 31 169 7z m540 -45 c120 -56 249 -183 292 -285 24 -56 12
-112 -35 -173 -101 -132 -408 -438 -439 -438 -20 0 -16 38 12 110 22 55 34 71
83 108 132 100 282 262 282 306 0 31 -46 122 -89 176 -49 63 -130 137 -170
156 l-35 17 -33 -39 -33 -39 -18 23 -19 24 -41 -47 c-22 -25 -47 -65 -55 -88
-8 -24 -21 -43 -30 -45 -62 -12 72 215 152 259 45 24 83 19 176 -25z m-451
-132 c9 -24 7 -28 -9 -14 -17 14 -20 30 -6 30 5 0 12 -7 15 -16z m109 -225
c21 -6 47 -19 58 -30 38 -38 26 -42 -93 -36 -61 4 -114 9 -117 12 -9 9 14 39
40 52 30 16 62 16 112 2z m129 -125 c94 -30 124 -82 78 -135 -20 -23 -21 -23
-33 -5 -50 79 -75 102 -126 119 -74 25 -158 32 -211 17 -43 -12 -100 -59 -126
-105 -11 -19 -12 -19 -32 -2 -31 28 -33 54 -8 84 38 44 83 52 256 47 97 -3
172 -11 202 -20z m-147 -59 c6 -17 19 -42 29 -57 12 -18 16 -36 12 -53 -5 -20
-3 -25 12 -25 10 0 27 -6 37 -14 18 -13 18 -14 -2 -27 -17 -10 -19 -16 -9 -31
9 -16 7 -22 -9 -34 -25 -18 -81 -34 -123 -34 -57 0 -142 55 -142 91 0 27 25
36 123 44 81 6 87 8 74 23 -8 10 -17 25 -20 35 -4 9 -16 17 -27 17 -17 0 -21
-5 -18 -27 l3 -28 -77 0 c-43 0 -78 2 -78 5 0 3 9 20 20 38 11 18 20 41 20 51
0 20 27 48 36 38 3 -3 -1 -20 -10 -38 -20 -39 -14 -49 28 -49 31 0 34 3 39 36
12 72 63 96 82 39z m134 -81 c3 -16 1 -17 -13 -5 -19 16 -21 34 -3 29 6 -3 14
-13 16 -24z m-325 -150 c16 -20 44 -42 62 -50 58 -24 182 -13 216 19 30 28 48
39 48 29 0 -17 -58 -66 -92 -79 -42 -15 -108 -16 -162 -2 -57 14 -116 63 -116
95 0 33 10 30 44 -12z m-147 -66 c24 -30 23 -252 -1 -275 -13 -14 -46 13 -60
48 -23 58 -20 151 10 247 4 14 33 3 51 -20z m133 -18 c14 -10 21 -22 17 -26
-4 -4 -20 4 -35 19 -31 31 -19 36 18 7z m480 -64 c0 -89 -41 -217 -73 -229
-19 -7 -26 46 -19 141 4 67 7 75 39 102 40 35 53 32 53 -14z m-400 -4 c0 -12
-79 -86 -85 -80 -3 3 11 24 31 47 36 39 54 50 54 33z m174 -33 c10 -17 15 -33
11 -37 -8 -8 -44 37 -45 56 0 21 15 13 34 -19z m-96 -1 c-6 -16 -36 -34 -44
-25 -9 9 15 37 33 37 8 0 13 -5 11 -12z m-233 -688 c3 -5 1 -10 -4 -10 -6 0
-11 5 -11 10 0 6 2 10 4 10 3 0 8 -4 11 -10z m705 -180 c0 -5 -4 -10 -10 -10
-5 0 -10 5 -10 10 0 6 5 10 10 10 6 0 10 -4 10 -10z m94 -56 c3 -8 2 -12 -4
-9 -6 3 -10 10 -10 16 0 14 7 11 14 -7z m144 -77 c6 -7 12 -27 14 -45 5 -62
-67 -106 -224 -138 l-87 -18 -26 24 c-42 40 -34 49 65 79 19 6 73 33 120 61
88 51 120 60 138 37z m-153 -7 c-3 -5 -12 -7 -20 -3 -21 7 -19 13 6 13 11 0
18 -4 14 -10z m-225 -20 c0 -5 -2 -10 -4 -10 -3 0 -8 5 -11 10 -3 6 -1 10 4
10 6 0 11 -4 11 -10z m318 -190 c-31 -57 -118 -136 -221 -199 -46 -29 -101
-67 -121 -85 -35 -33 -36 -35 -36 -107 0 -55 5 -84 20 -112 11 -20 20 -41 20
-47 0 -5 -22 -10 -48 -10 -26 0 -53 -5 -59 -11 -16 -16 -48 4 -60 38 -6 15
-22 60 -37 98 -14 39 -26 86 -26 105 0 45 33 80 77 80 28 0 52 17 155 107 68
59 125 110 128 113 18 22 72 49 109 55 24 4 58 13 75 20 43 19 50 5 24 -45z
m-894 -559 c26 -29 11 -41 -50 -41 -59 0 -66 8 -32 40 27 25 60 26 82 1z
m-147 -15 c-6 -17 -47 -20 -47 -3 0 9 6 17 13 20 18 6 38 -4 34 -17z m680 -22
c2 -7 -7 -14 -21 -18 -42 -10 -80 16 -38 27 27 8 55 3 59 -9z"/>
<path d="M1850 3442 c0 -14 11 -21 26 -15 21 8 17 23 -6 23 -11 0 -20 -4 -20
-8z"/>
<path d="M1846 3349 l-36 -31 0 26 c0 19 -5 26 -19 26 -11 0 -23 -4 -26 -10
-3 -5 -19 -10 -35 -10 -15 0 -30 -5 -32 -11 -3 -9 -10 -9 -27 0 -25 14 -37 7
-43 -24 -4 -21 -36 -26 -71 -10 -16 7 -16 5 -6 -19 17 -36 73 -36 111 -1 23
21 31 23 46 14 15 -9 30 -9 65 -1 25 7 63 12 84 12 35 0 38 2 40 30 3 42 -11
45 -51 9z"/>
<path d="M4967 3009 c-18 -10 -18 -12 -1 -30 21 -23 34 -24 60 -4 19 15 19 15
0 30 -23 18 -34 18 -59 4z"/>
<path d="M3977 2993 c-4 -3 -7 -20 -7 -36 0 -26 3 -29 23 -23 12 4 46 9 75 13
57 6 70 16 52 38 -13 15 -130 22 -143 8z"/>
<path d="M4790 2940 c-9 -6 -10 -10 -3 -10 6 0 15 5 18 10 8 12 4 12 -15 0z"/>
<path d="M1798 2913 c7 -3 16 -2 19 1 4 3 -2 6 -13 5 -11 0 -14 -3 -6 -6z"/>
<path d="M1528 2873 c-9 -2 -16 -12 -15 -22 1 -22 31 -17 59 11 17 17 17 18
-4 17 -13 -1 -31 -3 -40 -6z"/>
<path d="M846 2841 c-17 -7 -17 -8 -2 -24 20 -20 60 -32 75 -22 19 11 12 35
-15 45 -29 11 -32 11 -58 1z"/>
<path d="M1173 2803 l-31 -33 26 -20 c30 -24 72 -25 167 -4 86 18 98 20 207
29 53 4 92 13 99 21 8 10 6 14 -13 18 -50 11 -254 13 -270 3 -11 -8 -37 -6
-85 4 l-69 15 -31 -33z"/>
<path d="M5292 2819 c-27 -10 -25 -32 3 -37 18 -4 35 13 35 36 0 14 -6 14 -38
1z"/>
<path d="M3584 2637 c-8 -5 -22 -6 -30 -3 -18 7 -18 0 3 -35 10 -17 26 -29 38
-29 11 0 29 -3 40 -6 15 -4 25 3 38 25 9 16 17 34 17 39 0 13 -86 20 -106 9z"/>
<path d="M4443 2629 c-32 -9 -54 -29 -33 -29 15 0 80 28 80 34 0 7 -7 7 -47
-5z"/>
<path d="M3738 2608 c-16 -5 -28 -14 -28 -19 0 -5 -8 -9 -17 -9 -11 0 -5 -7
15 -17 24 -11 36 -13 44 -5 7 7 16 7 28 -1 14 -8 22 -8 34 2 9 8 16 17 16 22
0 7 -54 40 -62 38 -2 0 -15 -5 -30 -11z"/>
<path d="M48 2207 c-50 -23 -60 -40 -31 -52 17 -6 17 -7 0 -20 -15 -11 -17
-25 -15 -81 l3 -69 69 -17 c83 -20 186 -33 186 -23 0 10 -70 79 -100 97 -14 9
-49 19 -78 23 -64 8 -67 30 -8 50 22 8 50 25 62 38 13 14 29 27 36 30 19 6
-30 47 -56 47 -12 -1 -42 -11 -68 -23z"/>
<path d="M4369 2160 c-9 -5 -47 -14 -84 -19 -65 -10 -100 -25 -90 -41 8 -13
70 -1 165 30 55 18 97 26 118 23 20 -3 32 -1 32 6 0 14 -118 15 -141 1z"/>
<path d="M4928 2153 c6 -2 18 -2 25 0 6 3 1 5 -13 5 -14 0 -19 -2 -12 -5z"/>
<path d="M353 1879 c-10 -10 -6 -17 19 -36 18 -13 41 -23 52 -23 12 0 54 -9
95 -20 88 -24 109 -24 135 -5 19 15 19 15 -3 38 -17 19 -40 27 -109 36 -150
22 -176 23 -189 10z"/>
<path d="M4044 1622 c-12 -11 -13 -17 -3 -22 16 -10 4 -40 -16 -40 -15 0 -15
-1 0 -16 13 -14 21 -15 41 -5 36 16 75 14 90 -6 9 -13 16 -15 23 -8 11 11 0
65 -19 95 -13 20 -96 22 -116 2z"/>
<path d="M4250 1603 c0 -18 5 -33 10 -33 13 0 13 30 0 50 -7 11 -10 7 -10 -17z"/>
<path d="M3836 1599 c3 -6 0 -15 -7 -20 -10 -6 -3 -9 21 -9 29 0 36 4 36 20 0
15 -7 20 -29 20 -18 0 -26 -4 -21 -11z"/>
<path d="M3980 1600 c0 -5 10 -10 23 -10 18 0 19 2 7 10 -19 13 -30 13 -30 0z"/>
<path d="M2658 1413 c-10 -3 -18 -8 -18 -13 0 -5 -18 -14 -39 -20 -40 -10 -61
-37 -38 -46 7 -2 60 -3 117 -2 84 2 105 6 114 20 18 29 -25 66 -77 65 -23 0
-50 -2 -59 -4z"/>
<path d="M292 1354 c-12 -8 -22 -21 -22 -29 0 -28 129 -34 138 -7 2 7 -5 16
-17 19 -12 3 -21 12 -21 19 0 19 -50 18 -78 -2z"/>
<path d="M545 1336 c-20 -14 -20 -15 4 -40 29 -31 41 -33 48 -6 3 11 9 20 13
20 5 0 7 8 6 18 -4 22 -45 27 -71 8z"/>
<path d="M225 1314 c-5 -1 -22 -5 -36 -8 -14 -3 -37 -16 -51 -29 -26 -24 -26
-24 -6 -41 11 -10 21 -16 22 -14 1 2 13 18 25 35 13 19 35 36 54 41 20 5 26
10 17 14 -8 3 -19 4 -25 2z"/>
<path d="M43 1292 c-37 -3 -43 -6 -43 -27 0 -29 24 -38 67 -24 22 7 33 17 33
29 0 24 -5 26 -57 22z"/>
<path d="M5165 1113 c0 -32 4 -37 36 -49 32 -11 121 -19 172 -15 12 1 17 10
17 30 0 28 -3 30 -47 36 -27 4 -68 13 -92 21 -73 23 -86 20 -86 -23z"/>
<path d="M2717 832 c-24 -26 -21 -32 12 -32 35 0 48 15 31 35 -16 19 -23 19
-43 -3z"/>
<path d="M4785 352 c-13 -13 -3 -23 20 -20 14 2 26 8 25 13 0 11 -36 16 -45 7z"/>
<path d="M4674 313 c-32 -32 15 -44 66 -18 17 9 30 20 30 25 0 14 -80 9 -96
-7z"/>
<path d="M4535 300 c-19 -8 -19 -9 3 -9 12 -1 22 4 22 9 0 6 -1 10 -2 9 -2 0
-12 -4 -23 -9z"/>
<path d="M3913 265 c0 -15 4 -24 11 -22 6 2 11 12 11 22 0 10 -5 20 -11 22 -7
2 -11 -7 -11 -22z"/>
<path d="M4983 220 c-3 -11 -10 -20 -15 -20 -6 0 -8 -20 -6 -45 2 -25 0 -45
-3 -45 -4 0 -9 -15 -12 -33 -4 -17 -9 -42 -13 -54 -6 -22 -4 -23 69 -23 86 0
87 1 87 91 0 46 -3 59 -15 59 -13 0 -18 -14 -17 -40 0 -3 -6 -11 -13 -17 -12
-11 -19 -7 -40 20 -35 47 -34 77 4 77 35 0 62 27 40 41 -25 16 -61 10 -66 -11z"/>
<path d="M5090 220 c0 -5 4 -10 9 -10 6 0 13 5 16 10 3 6 -1 10 -9 10 -9 0
-16 -4 -16 -10z"/>
<path d="M3588 195 c-21 -14 -42 -34 -48 -45 -13 -24 -11 -24 26 -5 16 8 39
15 52 15 18 0 22 6 22 30 0 36 -5 37 -52 5z"/>
<path d="M1457 203 c-4 -3 -7 -10 -7 -15 0 -11 63 -5 72 7 5 6 8 5 8 -3 0 -7
5 -10 10 -7 6 3 10 10 10 16 0 10 -83 13 -93 2z"/>
<path d="M3720 184 c0 -11 5 -14 16 -10 9 3 20 6 25 6 5 0 9 5 9 10 0 6 -11
10 -25 10 -16 0 -25 -6 -25 -16z"/>
<path d="M3445 150 c-3 -5 1 -10 9 -10 8 0 18 5 21 10 3 6 -1 10 -9 10 -8 0
-18 -4 -21 -10z"/>
<path d="M5357 70 c3 -11 12 -20 21 -20 13 0 12 3 -3 20 -10 11 -19 20 -21 20
-1 0 0 -9 3 -20z"/>
<path d="M4650 60 c-11 -7 -12 -14 -2 -34 16 -35 52 -36 52 -1 0 28 -29 48
-50 35z"/>
<path d="M4746 38 c-22 -31 -20 -38 9 -38 20 0 25 5 25 24 0 34 -16 41 -34 14z"/>
<path d="M5366 24 c-9 -22 -8 -24 9 -24 8 0 15 9 15 20 0 24 -15 27 -24 4z"/>
<path d="M5160 15 c-25 -14 -24 -14 18 -15 31 0 42 4 42 15 0 19 -27 19 -60 0z"/>
</g>
</svg>
